<svg width="51" height="51" viewBox="0 0 51 51" fill="none" xmlns="http://www.w3.org/2000/svg">
<rect width="51" height="51" rx="10.0328" fill="#845DDF"/>
<path d="M28.2189 35.0049C28.2189 35.8434 27.9798 36.5069 27.5039 36.991C27.0258 37.4773 26.3366 37.7193 25.4364 37.7193C24.5363 37.7193 23.845 37.4773 23.369 36.991C22.8909 36.5069 22.654 35.8434 22.654 35.0049V25.9971H20.0654V34.9249C20.0654 35.9731 20.2786 36.8808 20.7029 37.648C21.1271 38.4152 21.7409 39.0052 22.5442 39.418C23.3475 39.8308 24.3101 40.0383 25.4343 40.0383C26.5585 40.0383 27.5211 39.8308 28.3244 39.418C29.1277 39.0052 29.7414 38.4152 30.1657 37.648C30.59 36.8808 30.8032 35.9731 30.8032 34.9249V25.9971H28.2167V35.0049H28.2189Z" fill="#E9353A" stroke="black" stroke-width="0.369053" stroke-miterlimit="10"/>
<path d="M28.2189 32.8439C28.2189 33.6824 27.9798 34.3459 27.5039 34.83C27.0258 35.3163 26.3366 35.5583 25.4364 35.5583C24.5363 35.5583 23.845 35.3163 23.369 34.83C22.8909 34.3459 22.654 33.6824 22.654 32.8439V23.8361H20.0654V32.7639C20.0654 33.8121 20.2786 34.7198 20.7029 35.487C21.1271 36.2542 21.7409 36.8442 22.5442 37.257C23.3475 37.6698 24.3101 37.8773 25.4343 37.8773C26.5585 37.8773 27.5211 37.6698 28.3244 37.257C29.1277 36.8442 29.7414 36.2542 30.1657 35.487C30.59 34.7198 30.8032 33.8121 30.8032 32.7639V23.8361H28.2167V32.8439H28.2189Z" fill="#EA59F7" stroke="black" stroke-width="0.369053" stroke-miterlimit="10"/>
<path d="M28.2189 30.6825C28.2189 31.521 27.9798 32.1845 27.5039 32.6686C27.0258 33.1549 26.3366 33.3969 25.4364 33.3969C24.5363 33.3969 23.845 33.1549 23.369 32.6686C22.8909 32.1845 22.654 31.521 22.654 30.6825V21.6747H20.0654V30.6025C20.0654 31.6507 20.2786 32.5584 20.7029 33.3256C21.1271 34.0928 21.7409 34.6829 22.5442 35.0956C23.3475 35.5084 24.3101 35.7159 25.4343 35.7159C26.5585 35.7159 27.5211 35.5084 28.3244 35.0956C29.1277 34.6829 29.7414 34.0928 30.1657 33.3256C30.59 32.5584 30.8032 31.6507 30.8032 30.6025V21.6747H28.2167V30.6825H28.2189Z" fill="#6333D7" stroke="black" stroke-width="0.369053" stroke-miterlimit="10"/>
<path d="M28.2189 28.5215C28.2189 29.36 27.9798 30.0235 27.5039 30.5076C27.0258 30.9939 26.3366 31.2359 25.4364 31.2359C24.5363 31.2359 23.845 30.9939 23.369 30.5076C22.8909 30.0235 22.654 29.36 22.654 28.5215V19.5137H20.0654V28.4415C20.0654 29.4897 20.2786 30.3974 20.7029 31.1646C21.1271 31.9318 21.7409 32.5218 22.5442 32.9346C23.3475 33.3474 24.3101 33.5549 25.4343 33.5549C26.5585 33.5549 27.5211 33.3474 28.3244 32.9346C29.1277 32.5218 29.7414 31.9318 30.1657 31.1646C30.59 30.3974 30.8032 29.4897 30.8032 28.4415V19.5137H28.2167V28.5215H28.2189Z" fill="#2287ED" stroke="black" stroke-width="0.369053" stroke-miterlimit="10"/>
<path d="M28.2189 26.3602C28.2189 27.1988 27.9798 27.8623 27.5039 28.3464C27.0258 28.8326 26.3366 29.0747 25.4364 29.0747C24.5363 29.0747 23.845 28.8326 23.369 28.3464C22.8909 27.8623 22.654 27.1988 22.654 26.3602V17.3524H20.0654V26.2803C20.0654 27.3284 20.2786 28.2361 20.7029 29.0034C21.1271 29.7706 21.7409 30.3606 22.5442 30.7734C23.3475 31.1862 24.3101 31.3936 25.4343 31.3936C26.5585 31.3936 27.5211 31.1862 28.3244 30.7734C29.1277 30.3606 29.7414 29.7706 30.1657 29.0034C30.59 28.2361 30.8032 27.3284 30.8032 26.2803V17.3524H28.2167V26.3602H28.2189Z" fill="#FCF05E" stroke="black" stroke-width="0.369053" stroke-miterlimit="10"/>
<path d="M28.2189 24.1992C28.2189 25.0378 27.9798 25.7012 27.5039 26.1854C27.0258 26.6716 26.3366 26.9137 25.4364 26.9137C24.5363 26.9137 23.845 26.6716 23.369 26.1854C22.8909 25.7012 22.654 25.0378 22.654 24.1992V15.1914H20.0654V24.1193C20.0654 25.1674 20.2786 26.0751 20.7029 26.8424C21.1271 27.6096 21.7409 28.1996 22.5442 28.6124C23.3475 29.0251 24.3101 29.2326 25.4343 29.2326C26.5585 29.2326 27.5211 29.0251 28.3244 28.6124C29.1277 28.1996 29.7414 27.6096 30.1657 26.8424C30.59 26.0751 30.8032 25.1674 30.8032 24.1193V15.1914H28.2167V24.1992H28.2189Z" fill="#BEFA61" stroke="black" stroke-width="0.369053" stroke-miterlimit="10"/>
<path d="M28.2189 22.038C28.2189 22.8765 27.9798 23.54 27.5039 24.0241C27.0258 24.5104 26.3366 24.7524 25.4364 24.7524C24.5363 24.7524 23.845 24.5104 23.369 24.0241C22.8909 23.54 22.654 22.8765 22.654 22.038V13.0302H20.0654V21.958C20.0654 23.0062 20.2786 23.9139 20.7029 24.6811C21.1271 25.4483 21.7409 26.0383 22.5442 26.4511C23.3475 26.8639 24.3101 27.0714 25.4343 27.0714C26.5585 27.0714 27.5211 26.8639 28.3244 26.4511C29.1277 26.0383 29.7414 25.4483 30.1657 24.6811C30.59 23.9139 30.8032 23.0062 30.8032 21.958V13.0302H28.2167V22.038H28.2189Z" fill="#5BEC7B" stroke="black" stroke-width="0.369053" stroke-miterlimit="10"/>
<path d="M28.2189 19.8766C28.2189 20.7151 27.9798 21.3786 27.5039 21.8627C27.0258 22.349 26.3366 22.591 25.4364 22.591C24.5363 22.591 23.845 22.349 23.369 21.8627C22.8909 21.3786 22.654 20.7151 22.654 19.8766V10.8688H20.0654V19.7966C20.0654 20.8448 20.2786 21.7525 20.7029 22.5197C21.1271 23.2869 21.7409 23.8769 22.5442 24.2897C23.3475 24.7025 24.3101 24.91 25.4343 24.91C26.5585 24.91 27.5211 24.7025 28.3244 24.2897C29.1277 23.8769 29.7414 23.2869 30.1657 22.5197C30.59 21.7525 30.8032 20.8448 30.8032 19.7966V10.8688H28.2167V19.8766H28.2189Z" fill="white" stroke="black" stroke-width="0.369053" stroke-miterlimit="10"/>
</svg>
