<svg width="100" height="100" viewBox="0 0 100 100" fill="none" xmlns="http://www.w3.org/2000/svg">
<g filter="url(#filter0_d_1_9914)">
<rect width="93" height="93" rx="18.2951" fill="#845DDF" shape-rendering="crispEdges"/>
<rect x="0.762295" y="0.762295" width="91.4754" height="91.4754" rx="17.5328" stroke="black" stroke-width="1.52459" shape-rendering="crispEdges"/>
<path d="M51.4579 63.8328C51.4579 65.3619 51.022 66.5717 50.1541 67.4545C49.2823 68.3412 48.0256 68.7826 46.384 68.7826C44.7425 68.7826 43.4819 68.3412 42.614 67.4545C41.7422 66.5717 41.3102 65.3619 41.3102 63.8328V47.4067H36.5898V63.6869C36.5898 65.5983 36.9786 67.2535 37.7523 68.6526C38.5259 70.0516 39.6451 71.1275 41.1099 71.8802C42.5748 72.633 44.3302 73.0113 46.3801 73.0113C48.4301 73.0113 50.1855 72.633 51.6503 71.8802C53.1151 71.1275 54.2343 70.0516 55.008 68.6526C55.7816 67.2535 56.1704 65.5983 56.1704 63.6869V47.4067H51.4539V63.8328H51.4579Z" fill="#E9353A" stroke="black" stroke-width="0.67298" stroke-miterlimit="10"/>
<path d="M51.4579 59.8918C51.4579 61.4209 51.022 62.6308 50.1541 63.5136C49.2823 64.4003 48.0256 64.8417 46.384 64.8417C44.7425 64.8417 43.4819 64.4003 42.614 63.5136C41.7422 62.6308 41.3102 61.4209 41.3102 59.8918V43.4658H36.5898V59.746C36.5898 61.6574 36.9786 63.3126 37.7523 64.7117C38.5259 66.1107 39.6451 67.1866 41.1099 67.9393C42.5748 68.6921 44.3302 69.0704 46.3801 69.0704C48.4301 69.0704 50.1855 68.6921 51.6503 67.9393C53.1151 67.1866 54.2343 66.1107 55.008 64.7117C55.7816 63.3126 56.1704 61.6574 56.1704 59.746V43.4658H51.4539V59.8918H51.4579Z" fill="#EA59F7" stroke="black" stroke-width="0.67298" stroke-miterlimit="10"/>
<path d="M51.4579 55.9504C51.4579 57.4795 51.022 58.6894 50.1541 59.5722C49.2823 60.4589 48.0256 60.9003 46.384 60.9003C44.7425 60.9003 43.4819 60.4589 42.614 59.5722C41.7422 58.6894 41.3102 57.4795 41.3102 55.9504V39.5244H36.5898V55.8046C36.5898 57.716 36.9786 59.3712 37.7523 60.7703C38.5259 62.1693 39.6451 63.2452 41.1099 63.9979C42.5748 64.7506 44.3302 65.129 46.3801 65.129C48.4301 65.129 50.1855 64.7506 51.6503 63.9979C53.1151 63.2452 54.2343 62.1693 55.008 60.7703C55.7816 59.3712 56.1704 57.716 56.1704 55.8046V39.5244H51.4539V55.9504H51.4579Z" fill="#6333D7" stroke="black" stroke-width="0.67298" stroke-miterlimit="10"/>
<path d="M51.4579 52.01C51.4579 53.5391 51.022 54.749 50.1541 55.6318C49.2823 56.5185 48.0256 56.9599 46.384 56.9599C44.7425 56.9599 43.4819 56.5185 42.614 55.6318C41.7422 54.749 41.3102 53.5391 41.3102 52.01V35.584H36.5898V51.8642C36.5898 53.7756 36.9786 55.4308 37.7523 56.8298C38.5259 58.2289 39.6451 59.3048 41.1099 60.0575C42.5748 60.8102 44.3302 61.1886 46.3801 61.1886C48.4301 61.1886 50.1855 60.8102 51.6503 60.0575C53.1151 59.3048 54.2343 58.2289 55.008 56.8298C55.7816 55.4308 56.1704 53.7756 56.1704 51.8642V35.584H51.4539V52.01H51.4579Z" fill="#2287ED" stroke="black" stroke-width="0.67298" stroke-miterlimit="10"/>
<path d="M51.4579 48.0691C51.4579 49.5982 51.022 50.8081 50.1541 51.6908C49.2823 52.5776 48.0256 53.019 46.384 53.019C44.7425 53.019 43.4819 52.5776 42.614 51.6908C41.7422 50.8081 41.3102 49.5982 41.3102 48.0691V31.6431H36.5898V47.9233C36.5898 49.8346 36.9786 51.4899 37.7523 52.8889C38.5259 54.288 39.6451 55.3638 41.1099 56.1166C42.5748 56.8693 44.3302 57.2476 46.3801 57.2476C48.4301 57.2476 50.1855 56.8693 51.6503 56.1166C53.1151 55.3638 54.2343 54.288 55.008 52.8889C55.7816 51.4899 56.1704 49.8346 56.1704 47.9233V31.6431H51.4539V48.0691H51.4579Z" fill="#FCF05E" stroke="black" stroke-width="0.67298" stroke-miterlimit="10"/>
<path d="M51.4579 44.1277C51.4579 45.6568 51.022 46.8667 50.1541 47.7494C49.2823 48.6362 48.0256 49.0776 46.384 49.0776C44.7425 49.0776 43.4819 48.6362 42.614 47.7494C41.7422 46.8667 41.3102 45.6568 41.3102 44.1277V27.7017H36.5898V43.9819C36.5898 45.8932 36.9786 47.5485 37.7523 48.9475C38.5259 50.3465 39.6451 51.4224 41.1099 52.1752C42.5748 52.9279 44.3302 53.3062 46.3801 53.3062C48.4301 53.3062 50.1855 52.9279 51.6503 52.1752C53.1151 51.4224 54.2343 50.3465 55.008 48.9475C55.7816 47.5485 56.1704 45.8932 56.1704 43.9819V27.7017H51.4539V44.1277H51.4579Z" fill="#BEFA61" stroke="black" stroke-width="0.67298" stroke-miterlimit="10"/>
<path d="M51.4579 40.1868C51.4579 41.7159 51.022 42.9257 50.1541 43.8085C49.2823 44.6952 48.0256 45.1366 46.384 45.1366C44.7425 45.1366 43.4819 44.6952 42.614 43.8085C41.7422 42.9257 41.3102 41.7159 41.3102 40.1868V23.7607H36.5898V40.0409C36.5898 41.9523 36.9786 43.6075 37.7523 45.0066C38.5259 46.4056 39.6451 47.4815 41.1099 48.2342C42.5748 48.987 44.3302 49.3653 46.3801 49.3653C48.4301 49.3653 50.1855 48.987 51.6503 48.2342C53.1151 47.4815 54.2343 46.4056 55.008 45.0066C55.7816 43.6075 56.1704 41.9523 56.1704 40.0409V23.7607H51.4539V40.1868H51.4579Z" fill="#5BEC7B" stroke="black" stroke-width="0.67298" stroke-miterlimit="10"/>
<path d="M51.4579 36.2458C51.4579 37.7749 51.022 38.9848 50.1541 39.8676C49.2823 40.7543 48.0256 41.1957 46.384 41.1957C44.7425 41.1957 43.4819 40.7543 42.614 39.8676C41.7422 38.9848 41.3102 37.7749 41.3102 36.2458V19.8198H36.5898V36.1C36.5898 38.0114 36.9786 39.6666 37.7523 41.0657C38.5259 42.4647 39.6451 43.5406 41.1099 44.2933C42.5748 45.0461 44.3302 45.4244 46.3801 45.4244C48.4301 45.4244 50.1855 45.0461 51.6503 44.2933C53.1151 43.5406 54.2343 42.4647 55.008 41.0657C55.7816 39.6666 56.1704 38.0114 56.1704 36.1V19.8198H51.4539V36.2458H51.4579Z" fill="white" stroke="black" stroke-width="0.67298" stroke-miterlimit="10"/>
</g>
<defs>
<filter id="filter0_d_1_9914" x="0" y="0" width="99.0984" height="99.0984" filterUnits="userSpaceOnUse" color-interpolation-filters="sRGB">
<feFlood flood-opacity="0" result="BackgroundImageFix"/>
<feColorMatrix in="SourceAlpha" type="matrix" values="0 0 0 0 0 0 0 0 0 0 0 0 0 0 0 0 0 0 127 0" result="hardAlpha"/>
<feOffset dx="6.09836" dy="6.09836"/>
<feComposite in2="hardAlpha" operator="out"/>
<feColorMatrix type="matrix" values="0 0 0 0 0 0 0 0 0 0 0 0 0 0 0 0 0 0 0.35 0"/>
<feBlend mode="normal" in2="BackgroundImageFix" result="effect1_dropShadow_1_9914"/>
<feBlend mode="normal" in="SourceGraphic" in2="effect1_dropShadow_1_9914" result="shape"/>
</filter>
</defs>
</svg>
